<?xml version="1.0" encoding="UTF-8"?>
<svg width="200" height="200" viewBox="0 0 200 200" xmlns="http://www.w3.org/2000/svg">
    <!-- Background Circle -->
    <circle cx="100" cy="100" r="90" fill="#1a1a1a" opacity="0.1"/>
    <circle cx="100" cy="100" r="90" fill="#3E4F57" opacity="0.1"/>
    
    <!-- Network Devices -->
    <g transform="translate(100, 100)">
        <!-- Router -->
        <rect x="-30" y="-20" width="60" height="40" rx="5" fill="#f5f5f5"/>
        <rect x="-25" y="-15" width="50" height="30" rx="3" fill="#FFFFFF"/>
        <circle cx="-15" cy="0" r="3" fill="#22c55e"/>
        <circle cx="0" cy="0" r="3" fill="#22c55e"/>
        <circle cx="15" cy="0" r="3" fill="#22c55e"/>
        
        <!-- Connection Lines -->
        <line x1="-60" y1="-40" x2="-30" y2="-20" stroke="#000000" stroke-width="2"/>
        <line x1="-60" y1="0" x2="-30" y2="0" stroke="#363636" stroke-width="2"/>
        <line x1="-60" y1="40" x2="-30" y2="20" stroke="#363636" stroke-width="2"/>
        <line x1="30" y1="-20" x2="60" y2="-40" stroke="#363636" stroke-width="2"/>
        <line x1="30" y1="0" x2="60" y2="0" stroke="#363636" stroke-width="2"/>
        <line x1="30" y1="20" x2="60" y2="40" stroke="#363636" stroke-width="2"/>
        
        <!-- Network Nodes -->
        <circle cx="-60" cy="-40" r="5" fill="#3E5FA3"/>
        <circle cx="-60" cy="0" r="5" fill="#3E5FA3"/>
        <circle cx="-60" cy="40" r="5" fill="#3E5FA3"/>
        <circle cx="60" cy="-40" r="5" fill="#3E5FA3"/>
        <circle cx="60" cy="0" r="5" fill="#3E5FA3"/>
        <circle cx="60" cy="40" r="5" fill="#3E5FA3"/>
    </g>
</svg> 
 